<mxfile host="app.diagrams.net" modified="2022-09-10T10:02:57.570Z" agent="5.0 (Windows NT 10.0; Win64; x64) AppleWebKit/537.36 (KHTML, like Gecko) Chrome/105.0.0.0 Safari/537.36 Edg/105.0.1343.27" etag="Q3rPeRwadt2uD-t5BSmK" version="20.3.0" type="github">
  <diagram id="HOke5kyKhzHh09xMBY5W" name="第 1 页">
    <mxGraphModel dx="1422" dy="794" grid="1" gridSize="10" guides="1" tooltips="1" connect="1" arrows="1" fold="1" page="1" pageScale="1" pageWidth="827" pageHeight="1169" math="0" shadow="0">
      <root>
        <mxCell id="0" />
        <mxCell id="1" parent="0" />
        <mxCell id="OI6YGdQxF_9zpbNMzu-i-1" value="restoration of political morality and social order of early Zhou dynasty morality" style="rounded=1;whiteSpace=wrap;html=1;fontFamily=Comic Sans MS;fillStyle=auto;strokeWidth=2;fontSize=15;shadow=1;sketch=1;glass=0;" vertex="1" parent="1">
          <mxGeometry x="120" y="150" width="370" height="60" as="geometry" />
        </mxCell>
        <mxCell id="OI6YGdQxF_9zpbNMzu-i-2" value="restoration of political and social order of early zhou dynasty morality" style="rounded=0;whiteSpace=wrap;html=1;" vertex="1" parent="1">
          <mxGeometry x="690" y="420" width="120" height="60" as="geometry" />
        </mxCell>
        <mxCell id="OI6YGdQxF_9zpbNMzu-i-8" style="edgeStyle=orthogonalEdgeStyle;rounded=0;orthogonalLoop=1;jettySize=auto;html=1;entryX=0.5;entryY=1;entryDx=0;entryDy=0;fontFamily=Comic Sans MS;fontSize=15;fontStyle=1;horizontal=0;verticalAlign=top;exitX=0.5;exitY=0;exitDx=0;exitDy=0;" edge="1" parent="1" source="OI6YGdQxF_9zpbNMzu-i-12" target="OI6YGdQxF_9zpbNMzu-i-1">
          <mxGeometry relative="1" as="geometry">
            <mxPoint x="305" y="260" as="sourcePoint" />
          </mxGeometry>
        </mxCell>
        <mxCell id="OI6YGdQxF_9zpbNMzu-i-14" style="edgeStyle=orthogonalEdgeStyle;rounded=0;orthogonalLoop=1;jettySize=auto;html=1;exitX=0.5;exitY=0;exitDx=0;exitDy=0;entryX=0.5;entryY=1;entryDx=0;entryDy=0;fontFamily=Comic Sans MS;fontSize=15;" edge="1" parent="1" source="OI6YGdQxF_9zpbNMzu-i-4" target="OI6YGdQxF_9zpbNMzu-i-12">
          <mxGeometry relative="1" as="geometry" />
        </mxCell>
        <mxCell id="OI6YGdQxF_9zpbNMzu-i-4" value="universal love" style="rounded=1;whiteSpace=wrap;html=1;fontFamily=Comic Sans MS;fillStyle=auto;strokeWidth=3;fontSize=14;shadow=1;sketch=0;glass=0;" vertex="1" parent="1">
          <mxGeometry x="120" y="370" width="370" height="60" as="geometry" />
        </mxCell>
        <mxCell id="OI6YGdQxF_9zpbNMzu-i-6" style="edgeStyle=orthogonalEdgeStyle;rounded=0;orthogonalLoop=1;jettySize=auto;html=1;entryX=0.5;entryY=1;entryDx=0;entryDy=0;fontFamily=Comic Sans MS;fontSize=15;fontStyle=1" edge="1" parent="1" source="OI6YGdQxF_9zpbNMzu-i-5" target="OI6YGdQxF_9zpbNMzu-i-4">
          <mxGeometry relative="1" as="geometry" />
        </mxCell>
        <mxCell id="OI6YGdQxF_9zpbNMzu-i-5" value="filial piety and fraternal duty" style="rounded=1;whiteSpace=wrap;html=1;fontFamily=Comic Sans MS;fillStyle=auto;strokeWidth=3;fontSize=14;shadow=1;sketch=0;glass=0;labelBackgroundColor=default;fontStyle=1" vertex="1" parent="1">
          <mxGeometry x="120" y="480" width="370" height="60" as="geometry" />
        </mxCell>
        <mxCell id="OI6YGdQxF_9zpbNMzu-i-11" value="restoration of political morality and social order of early Zhou dynasty morality" style="rounded=1;whiteSpace=wrap;html=1;fontFamily=Comic Sans MS;fillStyle=auto;strokeWidth=2;fontSize=15;shadow=0;sketch=0;glass=0;" vertex="1" parent="1">
          <mxGeometry x="120" y="150" width="370" height="60" as="geometry" />
        </mxCell>
        <mxCell id="OI6YGdQxF_9zpbNMzu-i-12" value="harmonious relationship between individuals" style="rounded=1;whiteSpace=wrap;html=1;fontFamily=Comic Sans MS;fillStyle=auto;strokeWidth=2;fontSize=15;shadow=0;sketch=0;glass=0;" vertex="1" parent="1">
          <mxGeometry x="120" y="260" width="370" height="60" as="geometry" />
        </mxCell>
        <mxCell id="OI6YGdQxF_9zpbNMzu-i-15" value="restoration of political morality and social order of early Zhou dynasty morality" style="rounded=1;whiteSpace=wrap;html=1;fontFamily=Comic Sans MS;fillStyle=auto;strokeWidth=3;fontSize=14;shadow=1;sketch=0;glass=0;" vertex="1" parent="1">
          <mxGeometry x="120" y="150" width="370" height="60" as="geometry" />
        </mxCell>
        <mxCell id="OI6YGdQxF_9zpbNMzu-i-16" value="harmonious relationship between individuals" style="rounded=1;whiteSpace=wrap;html=1;fontFamily=Comic Sans MS;fillStyle=auto;strokeWidth=3;fontSize=14;shadow=1;sketch=0;glass=0;" vertex="1" parent="1">
          <mxGeometry x="120" y="260" width="370" height="60" as="geometry" />
        </mxCell>
        <mxCell id="OI6YGdQxF_9zpbNMzu-i-17" value="restoration of political morality and social order of early Zhou dynasty morality" style="rounded=1;whiteSpace=wrap;html=1;fontFamily=Comic Sans MS;fillStyle=auto;strokeWidth=3;fontSize=14;shadow=1;sketch=0;glass=0;fontStyle=1;labelBackgroundColor=default;" vertex="1" parent="1">
          <mxGeometry x="120" y="150" width="370" height="60" as="geometry" />
        </mxCell>
        <mxCell id="OI6YGdQxF_9zpbNMzu-i-18" value="harmonious relationship between individuals" style="rounded=1;whiteSpace=wrap;html=1;fontFamily=Comic Sans MS;fillStyle=auto;strokeWidth=3;fontSize=14;shadow=1;sketch=0;glass=0;fontStyle=1;labelBackgroundColor=default;" vertex="1" parent="1">
          <mxGeometry x="120" y="260" width="370" height="60" as="geometry" />
        </mxCell>
        <mxCell id="OI6YGdQxF_9zpbNMzu-i-19" value="universal love" style="rounded=1;whiteSpace=wrap;html=1;fontFamily=Comic Sans MS;fillStyle=auto;strokeWidth=3;fontSize=14;shadow=1;sketch=0;glass=0;fontStyle=1;labelBackgroundColor=default;" vertex="1" parent="1">
          <mxGeometry x="120" y="370" width="370" height="60" as="geometry" />
        </mxCell>
      </root>
    </mxGraphModel>
  </diagram>
</mxfile>
